<?xml version="1.0" encoding="UTF-8"?>
<svg width="1200pt" height="1200pt" version="1.1" viewBox="0 0 1200 1200" xmlns="http://www.w3.org/2000/svg">
 <path d="m1012.1 202.4c0-2.4375 0-4.8281-1.2188-6.0469s-2.4375-3.6562-3.6562-4.8281c-1.2188-1.2188-3.6562-2.4375-4.8281-3.6562-2.4375-1.2188-3.6562-1.2188-6.0469-1.2188-1.2188 0-3.6562 0-4.8281 1.2188l-70.312 25.453-150.32-101.81v-81.234c0-2.4375 0-4.8281-1.2188-8.4844-3.6562-8.4844-13.312-12.141-21.797-8.4844l-550.31 232.74c-6.0469 2.4375-9.7031 8.4844-9.7031 14.531v722.44c0 4.8281 2.4375 10.922 7.2656 13.312l246.1 167.29c2.4375 2.4375 6.0469 2.4375 9.7031 2.4375 2.4375 0 3.6562 0 6.0469-1.2188l546.66-224.26c6.0469-2.4375 9.7031-8.4844 9.7031-15.75zm-729.71 758.81c1.2188 0 1.2188 1.2188 0 0l156.37 106.69 1.2188 54.562-207.28-139.45zm169.69 90.891-146.68-99.375 442.4-184.26 41.203 27.891-99.375 43.641c-3.6562 1.2188-4.8281 4.8281-3.6562 8.4844 1.2188 2.4375 3.6562 3.6562 6.0469 3.6562h2.4375l106.69-46.078 96.984 65.438zm367.26-260.58v-334.55c0-3.6562-2.4375-6.0469-6.0469-6.0469-3.6562 0-6.0469 2.4375-6.0469 6.0469v326.06l-48.469-32.719-0.046875-607.31 150.32 101.81v607.26zm-79.969-738.19v695.76l-520.03 215.72v-693.32zm-278.81 1075.1v-56.953l464.26-190.31h1.2188c1.2188-1.2188 2.4375-1.2188 3.6562-2.4375s1.2188-2.4375 1.2188-3.6562v-1.2188l-0.046875-1.1719v-626.68c1.2188 0 1.2188-1.2188 2.4375-2.4375l47.25-18.188 1.2188 688.5z"/>
 <path d="m607.26 916.36-107.86 46.078c-3.6562 1.2188-4.8281 4.8281-3.6562 8.4844 1.2188 2.4375 3.6562 3.6562 6.0469 3.6562h2.4375l107.86-46.078c3.6562-1.2188 4.8281-4.8281 3.6562-8.4844-1.2188-3.6562-4.8281-4.875-8.4844-3.6562z"/>
 <path d="m853.31 258.19c-3.6562 0-6.0469 2.4375-6.0469 6.0469v118.78c0 3.6562 2.4375 6.0469 6.0469 6.0469 3.6562 0 6.0469-2.4375 6.0469-6.0469v-118.78c0.046875-3.6094-2.3906-6.0469-6.0469-6.0469z"/>
 <path d="m853.31 418.18c-3.6562 0-6.0469 2.4375-6.0469 6.0469v7.2656c0 3.6562 2.4375 6.0469 6.0469 6.0469 3.6562 0 6.0469-2.4375 6.0469-6.0469l0.046875-7.2188c0-3.6562-2.4375-6.0938-6.0938-6.0938z"/>
</svg>
